<svg xmlns="http://www.w3.org/2000/svg" xmlns:xlink="http://www.w3.org/1999/xlink" width="24" height="24" viewBox="0 0 24 24">
  <defs>
    <clipPath id="clip-path">
      <rect id="사각형_621" data-name="사각형 621" width="24" height="24" fill="#777"/>
    </clipPath>
    <clipPath id="clip-path-2">
      <rect id="사각형_620" data-name="사각형 620" width="21" height="21" fill="none"/>
    </clipPath>
  </defs>
  <g id="그룹_2269" data-name="그룹 2269" clip-path="url(#clip-path)">
    <g id="그룹_2268" data-name="그룹 2268" transform="translate(1.5 1.5)" opacity="0.36">
      <g id="그룹_2267" data-name="그룹 2267">
        <g id="그룹_2266" data-name="그룹 2266" clip-path="url(#clip-path-2)">
          <rect id="사각형_619" data-name="사각형 619" width="19" height="19" transform="translate(1 1)" fill="none"/>
        </g>
      </g>
    </g>
    <path id="패스_3663" data-name="패스 3663" d="M17.926,3.974H6.074a2.1,2.1,0,0,0-2.1,2.1V17.926a2.1,2.1,0,0,0,2.1,2.1H17.926a2.1,2.1,0,0,0,2.1-2.1V6.074a2.1,2.1,0,0,0-2.1-2.1m0,1.112v.125a.864.864,0,0,1,.862.863V17.926a.864.864,0,0,1-.863.863H6.073a.864.864,0,0,1-.862-.863V6.073a.864.864,0,0,1,.863-.862H17.926Z" transform="translate(0 0)" fill="#777"/>
    <path id="패스_3664" data-name="패스 3664" d="M15.428,11.346H12.654V8.572a.655.655,0,1,0-1.309,0v2.774H8.571a.653.653,0,0,0-.462,1.116.646.646,0,0,0,.462.192h2.774v2.774a.656.656,0,0,0,.655.654.655.655,0,0,0,.654-.654V12.654h2.774a.654.654,0,0,0,0-1.308" transform="translate(0 0)" fill="#777"/>
  </g>
</svg>
