<svg xmlns="http://www.w3.org/2000/svg" width="25" height="25" viewBox="0 0 25 25">
  <g id="그룹_2114" data-name="그룹 2114" transform="translate(0.226 0.19)">
    <circle id="타원_137" data-name="타원 137" cx="12.5" cy="12.5" r="12.5" transform="translate(-0.226 -0.19)" fill="#9596ff"/>
    <path id="패스_3567" data-name="패스 3567" d="M10,10.517a.7.7,0,0,1-.255-.047l-1.7-.644-1.565.64a.712.712,0,0,1-.521,0l-1.626-.61-1.565.609a.722.722,0,0,1-.514,0L.239,9.525A.416.416,0,0,1,0,9.148V6.665C0,5.86.006,5.371.008,5.2.044,2.791,1.266,1.38,3.362,1.326A3.191,3.191,0,0,1,4.8,1.651,3.131,3.131,0,0,1,6.861.084,7.605,7.605,0,0,1,7.9,0a4.07,4.07,0,0,1,2.614.883,4.907,4.907,0,0,1,1.649,3.726q.033.6.033,1.184l-.012,3.217c-.022.268-.029.346-1.867,1.429A.765.765,0,0,1,10,10.517ZM4.332,9a.416.416,0,0,1,.146.026l1.78.667,1.625-.7a.416.416,0,0,1,.3,0l1.806.684c.5-.3,1.11-.678,1.364-.856l.01-3.026q0-.56-.032-1.137A4.119,4.119,0,0,0,9.995,1.531,3.214,3.214,0,0,0,7.9.832c-.113,0-.721.032-.838.059a2.3,2.3,0,0,0-1.68,1.494.416.416,0,0,1-.637.2,2.263,2.263,0,0,0-1.332-.431C1.318,2.21.86,3.847.84,5.211c0,.17-.008.655-.008,1.453V8.884l1.686.791,1.664-.647A.416.416,0,0,1,4.332,9Z" transform="translate(14.476 3.882) rotate(60)" fill="#fff"/>
  </g>
</svg>
