<svg xmlns="http://www.w3.org/2000/svg" width="26" height="26" viewBox="0 0 26 26">
  <g id="그룹_2124" data-name="그룹 2124" transform="translate(0.144 0.19)">
    <path id="패스_3608" data-name="패스 3608" d="M20.7,10.829A5.334,5.334,0,0,0,18.942,7.82a6.854,6.854,0,0,0-3.308-1.6v-2A.23.23,0,0,0,15.4,4H13.118a.228.228,0,0,0-.234.223v2a6.859,6.859,0,0,0-3.309,1.6,5.349,5.349,0,0,0-1.756,3.009c-.714,3.712-1.449,7.718-1.827,9.79a1.235,1.235,0,0,0,1.255,1.425h4.3a2.578,2.578,0,0,0-.034.328,2.753,2.753,0,0,0,5.5,0,2.578,2.578,0,0,0-.034-.328h4.3a1.236,1.236,0,0,0,1.257-1.425c-.378-2.072-1.114-6.077-1.829-9.79" transform="translate(-1.482 -1.656)" fill="#b5b5b5"/>
    <rect id="사각형_488" data-name="사각형 488" width="26" height="26" transform="translate(-0.144 -0.19)" fill="none"/>
  </g>
</svg>
