<svg xmlns="http://www.w3.org/2000/svg" xmlns:xlink="http://www.w3.org/1999/xlink" width="35.063" height="35.396" viewBox="0 0 35.063 35.396">
  <defs>
    <style>
      .cls-1 {
        fill: none;
      }

      .cls-2 {
        clip-path: url(#clip-path);
      }

      .cls-3 {
        opacity: 0.36;
      }

      .cls-4 {
        clip-path: url(#clip-path-2);
      }

      .cls-5 {
        fill: #fff;
      }
    </style>
    <clipPath id="clip-path">
      <rect id="사각형_593" data-name="사각형 593" class="cls-1" width="35" height="35" transform="translate(-0.161 -0.494)"/>
    </clipPath>
    <clipPath id="clip-path-2">
      <rect id="사각형_592" data-name="사각형 592" class="cls-1" width="31" height="30" transform="translate(-0.343 0.325)"/>
    </clipPath>
  </defs>
  <g id="그룹_2464" data-name="그룹 2464" transform="translate(0.161 0.494)">
    <g id="그룹_2237" data-name="그룹 2237">
      <path id="패스_3655" data-name="패스 3655" class="cls-1" d="M1.454,1.454H33.449V33.449H1.454ZM0,34.9H34.9V0H0Z"/>
      <g id="그룹_2234" data-name="그룹 2234">
        <g id="그룹_2233" data-name="그룹 2233" class="cls-2">
          <g id="그룹_2232" data-name="그룹 2232" class="cls-3" transform="translate(2.181 2.181)">
            <g id="그룹_2231" data-name="그룹 2231">
              <g id="그룹_2230" data-name="그룹 2230" class="cls-4">
                <rect id="사각형_591" data-name="사각형 591" class="cls-1" width="27.631" height="27.631" transform="translate(1.454 1.454)"/>
              </g>
            </g>
          </g>
          <path id="합치기_2" data-name="합치기 2" class="cls-5" d="M18.191,21.795,11.268,14.87,4.342,21.795a2.545,2.545,0,1,1-3.6-3.6L7.668,11.27.742,4.345a2.545,2.545,0,1,1,3.6-3.6l6.926,6.925L18.191.746a2.546,2.546,0,0,1,3.6,3.6L14.867,11.27,21.793,18.2a2.546,2.546,0,0,1-3.6,3.6Z" transform="translate(6.184 6.181)"/>
        </g>
      </g>
    </g>
  </g>
</svg>
