<svg xmlns="http://www.w3.org/2000/svg" xmlns:xlink="http://www.w3.org/1999/xlink" width="28" height="29" viewBox="0 0 28 29">
  <defs>
    <clipPath id="clip-path">
      <rect id="사각형_660" data-name="사각형 660" width="24.372" height="24.372" fill="none"/>
    </clipPath>
  </defs>
  <g id="그룹_2321" data-name="그룹 2321" transform="translate(0.139 0.734)">
    <path id="패스_3680" data-name="패스 3680" d="M1.161,1.161H26.694V26.694H1.161ZM0,27.853H27.853V0H0Z" transform="translate(0.008 0.017)" fill="none"/>
    <g id="그룹_2309" data-name="그룹 2309" transform="translate(1.749 1.757)" opacity="0.36">
      <g id="그룹_2308" data-name="그룹 2308" transform="translate(0 0)">
        <g id="그룹_2307" data-name="그룹 2307" clip-path="url(#clip-path)">
          <rect id="사각형_659" data-name="사각형 659" width="22.051" height="22.051" transform="translate(1.161 1.161)" fill="none"/>
        </g>
      </g>
    </g>
    <path id="패스_3681" data-name="패스 3681" d="M17.988,18.606H4.622l.263-.816a13.854,13.854,0,0,0,.794-4.639V10.759A3.763,3.763,0,0,1,9.438,7h8.55a3.764,3.764,0,0,1,3.76,3.759v4.087a3.764,3.764,0,0,1-3.76,3.759M5.852,17.713H17.988a2.87,2.87,0,0,0,2.867-2.867V10.759a2.87,2.87,0,0,0-2.867-2.867H9.438a2.87,2.87,0,0,0-2.867,2.867v2.392a14.6,14.6,0,0,1-.72,4.562" transform="translate(0.75 1.14)" fill="#b5b5b5"/>
    <rect id="사각형_661" data-name="사각형 661" width="27" height="29" transform="translate(-0.139 -0.734)" fill="none"/>
    <rect id="사각형_662" data-name="사각형 662" width="27" height="29" transform="translate(-0.139 -0.734)" fill="none"/>
  </g>
</svg>
