<svg xmlns="http://www.w3.org/2000/svg" width="84.889" height="27.545" viewBox="0 0 84.889 27.545">
  <g id="그룹_2419" data-name="그룹 2419" transform="translate(-170.64 -534.82)">
    <path id="패스_3730" data-name="패스 3730" d="M19.025,9.735a.689.689,0,0,1-.969.171,5.446,5.446,0,0,0-3.462-1.15,4.613,4.613,0,0,0-4.536,4.93,4.953,4.953,0,0,0,4.851,5.088,6.706,6.706,0,0,0,3.97-1.266.686.686,0,0,1,.978.244l2.637,4.762a2.268,2.268,0,0,1-.915,3.1,15.851,15.851,0,0,1-8.76,1.835C5.206,26.938,0,21.3,0,13.489A13.7,13.7,0,0,1,3.786,4.023,14.561,14.561,0,0,1,13.765,0a15.144,15.144,0,0,1,7.659,1.78,2.271,2.271,0,0,1,.8,3.278Z" transform="translate(170.64 534.82)" fill="#fff"/>
    <circle id="타원_181" data-name="타원 181" cx="2.015" cy="2.015" r="2.015" transform="translate(211.991 534.82)" fill="#9596ff"/>
    <circle id="타원_182" data-name="타원 182" cx="2.015" cy="2.015" r="2.015" transform="translate(222.066 534.82)" fill="#9596ff"/>
    <path id="패스_3731" data-name="패스 3731" d="M123.092,4.648V28.84a1.294,1.294,0,0,1-1.294,1.294h-6.325a1.294,1.294,0,0,1-1.294-1.294V4.648a1.294,1.294,0,0,1,1.294-1.294H121.8a1.294,1.294,0,0,1,1.294,1.294" transform="translate(81.837 532.182)" fill="#fff"/>
    <path id="패스_3732" data-name="패스 3732" d="M185.861,38.926a.721.721,0,0,0,0-.514l-.076-.2-1.456-3.751,1.456-3.885.079-.212a.721.721,0,0,0,0-.514l-.076-.2-1.268-3.267a.9.9,0,0,0-.84-.575h-5.905a.9.9,0,0,0-.9.9v11a.891.891,0,0,1-.231.6,2.143,2.143,0,0,1-1.623.845c-1.341.089-1.854-.577-1.854-2.484V26.718a.9.9,0,0,0-.9-.9h-6.335a1.678,1.678,0,0,0-1.678,1.678V38.414c0,3.149.2,4.657.828,5.944a6.513,6.513,0,0,0,5.482,3.415c2.571.2,11.927-.011,14.7-.289a.538.538,0,0,0,.446-.731l-1.411-3.635,1.5-3.993Z" transform="translate(44.457 514.515)" fill="#fff"/>
    <path id="패스_3729" data-name="패스 3729" d="M288.715,17.112a.716.716,0,0,1-.059-1.217A4.933,4.933,0,0,0,291,11.321,6.366,6.366,0,0,0,287.92,5.8c-2.011-1.3-4.968-1.894-9.346-1.894-1.855,0-4.024.117-5.994.275-.61.053-1.487.191-2,.276a.717.717,0,0,0-.554.457L268.6,8.73a.69.69,0,0,0,0,.491l1.438,3.7a.719.719,0,0,1,0,.513L268.6,17.288a.69.69,0,0,0,0,.491l1.472,3.793a.721.721,0,0,1,0,.513L268.6,26.032a.69.69,0,0,0,0,.491l1.185,3.053a.72.72,0,0,0,.557.45l.032.005.389.064a54.458,54.458,0,0,0,7.335.472c5.64,0,8.716-.591,10.926-2.049a7.011,7.011,0,0,0,2.918-5.76,6.132,6.132,0,0,0-3.229-5.648m-11.333-6.525a.721.721,0,0,1,.677-.713c.308-.019.576-.032.668-.032,2.169,0,3.234.835,3.234,2.545a2.091,2.091,0,0,1-.07.5c-.173.9-.958,1.864-1.622,1.864h-2.193a.72.72,0,0,1-.72-.725Zm4.759,12.623a2.3,2.3,0,0,1-.728.861.89.89,0,0,1-.083.054,4.141,4.141,0,0,1-1.849.411,9.449,9.449,0,0,1-1.488-.015.719.719,0,0,1-.638-.721l.027-3.776a.72.72,0,0,1,.72-.715h.7c2.248,0,3.627.995,3.627,2.626a2.7,2.7,0,0,1-.292,1.274" transform="translate(-36.414 531.747)" fill="#9596ff"/>
  </g>
</svg>
