<svg id="그룹_2097" data-name="그룹 2097" xmlns="http://www.w3.org/2000/svg" xmlns:xlink="http://www.w3.org/1999/xlink" width="37.105" height="31.987" viewBox="0 0 37.105 31.987">
  <defs>
    <clipPath id="clip-path">
      <rect id="사각형_363" data-name="사각형 363" width="37.105" height="31.987" fill="none"/>
    </clipPath>
  </defs>
  <g id="그룹_2096" data-name="그룹 2096" transform="translate(0 0)">
    <g id="그룹_2077" data-name="그룹 2077" transform="translate(0 0)" clip-path="url(#clip-path)">
      <path id="패스_3567" data-name="패스 3567" d="M30.42,31.987a2.132,2.132,0,0,1-.776-.142l-5.171-1.959-4.759,1.948a2.165,2.165,0,0,1-1.584.011l-4.946-1.854-4.76,1.851a2.2,2.2,0,0,1-1.564,0L.727,28.969A1.265,1.265,0,0,1,0,27.824V20.27c0-2.449.017-3.935.025-4.458C.133,8.49,3.851,4.2,10.226,4.032a9.707,9.707,0,0,1,4.374.988A9.522,9.522,0,0,1,20.867.256,23.131,23.131,0,0,1,24.037,0a12.378,12.378,0,0,1,7.95,2.687C35.038,5.164,36.724,8.975,37,14.02q.1,1.824.1,3.6l-.036,9.785c-.066.814-.087,1.054-5.678,4.346A2.327,2.327,0,0,1,30.42,31.987ZM13.176,27.372a1.265,1.265,0,0,1,.444.08l5.413,2.029,4.943-2.125a1.265,1.265,0,0,1,.927-.012l5.492,2.08c1.507-.907,3.377-2.062,4.15-2.6l.03-9.2q0-1.7-.1-3.458c-.239-4.3-1.611-7.5-4.079-9.5A9.775,9.775,0,0,0,24.037,2.53c-.344,0-2.192.1-2.55.179a7,7,0,0,0-5.109,4.543,1.265,1.265,0,0,1-1.938.618,6.882,6.882,0,0,0-4.052-1.31C4.007,6.723,2.615,11.7,2.554,15.85c-.008.518-.025,1.992-.025,4.421v6.75l5.127,2.406,5.061-1.969A1.265,1.265,0,0,1,13.176,27.372Z" transform="translate(0 0)" fill="#9498f8"/>
    </g>
  </g>
  <circle id="타원_53" data-name="타원 53" cx="1.968" cy="1.968" r="1.968" transform="translate(12.079 14.075)" fill="#fff"/>
  <circle id="타원_54" data-name="타원 54" cx="1.968" cy="1.968" r="1.968" transform="translate(20.231 14.075)" fill="#fff"/>
</svg>
