<svg xmlns="http://www.w3.org/2000/svg" xmlns:xlink="http://www.w3.org/1999/xlink" width="34.02" height="29.328" viewBox="0 0 34.02 29.328">
  <defs>
    <clipPath id="clip-path">
      <rect id="사각형_363" data-name="사각형 363" width="34.02" height="29.328" fill="#777"/>
    </clipPath>
  </defs>
  <g id="그룹_2412" data-name="그룹 2412" transform="translate(-491.441 -175.205)">
    <g id="그룹_2096" data-name="그룹 2096" transform="translate(491.441 175.205)">
      <g id="그룹_2077" data-name="그룹 2077" transform="translate(0 0)" clip-path="url(#clip-path)">
        <path id="패스_3567" data-name="패스 3567" d="M27.891,29.328a1.955,1.955,0,0,1-.712-.13l-4.741-1.8-4.363,1.786a1.985,1.985,0,0,1-1.452.01l-4.535-1.7-4.364,1.7a2.013,2.013,0,0,1-1.434,0L.667,26.561A1.16,1.16,0,0,1,0,25.511V18.585C0,16.34.016,14.977.023,14.5c.1-6.714,3.508-10.65,9.353-10.8a8.9,8.9,0,0,1,4.011.906A8.73,8.73,0,0,1,19.132.235,21.208,21.208,0,0,1,22.038,0a11.349,11.349,0,0,1,7.289,2.464c2.8,2.271,4.343,5.766,4.6,10.39q.093,1.672.092,3.3l-.033,8.972c-.061.747-.079.966-5.206,3.985A2.133,2.133,0,0,1,27.891,29.328ZM12.081,25.1a1.16,1.16,0,0,1,.407.074l4.963,1.86,4.532-1.949a1.16,1.16,0,0,1,.85-.011l5.035,1.907c1.382-.831,3.1-1.891,3.8-2.386l.027-8.439q0-1.56-.089-3.17c-.219-3.945-1.477-6.876-3.74-8.714A8.962,8.962,0,0,0,22.038,2.32c-.315,0-2.01.09-2.338.164a6.414,6.414,0,0,0-4.684,4.165,1.16,1.16,0,0,1-1.777.567,6.31,6.31,0,0,0-3.715-1.2c-5.85.149-7.126,4.714-7.182,8.517-.007.475-.023,1.827-.023,4.053v6.189l4.7,2.206,4.64-1.8A1.16,1.16,0,0,1,12.081,25.1Z" transform="translate(0 0)" fill="#777"/>
      </g>
    </g>
    <circle id="타원_53" data-name="타원 53" cx="1.804" cy="1.804" r="1.804" transform="translate(502.516 188.109)" fill="#777"/>
    <circle id="타원_54" data-name="타원 54" cx="1.804" cy="1.804" r="1.804" transform="translate(509.99 188.109)" fill="#777"/>
  </g>
</svg>
