<svg xmlns="http://www.w3.org/2000/svg" xmlns:xlink="http://www.w3.org/1999/xlink" width="27.436" height="27.436" viewBox="0 0 27.436 27.436">
  <defs>
    <clipPath id="clip-path">
      <rect id="사각형_520" data-name="사각형 520" width="27.436" height="27.436" fill="none"/>
    </clipPath>
    <clipPath id="clip-path-2">
      <rect id="사각형_523" data-name="사각형 523" width="23.046" height="23.046" fill="none"/>
    </clipPath>
  </defs>
  <g id="그룹_2155" data-name="그룹 2155" transform="translate(0 0)">
    <g id="그룹_2164" data-name="그룹 2164" transform="translate(0 0)">
      <g id="그룹_2148" data-name="그룹 2148" opacity="0.53">
        <g id="그룹_2147" data-name="그룹 2147">
          <g id="그룹_2146" data-name="그룹 2146" clip-path="url(#clip-path)">
            <rect id="사각형_519" data-name="사각형 519" width="25.241" height="25.241" transform="translate(1.097 1.097)" fill="none"/>
            <path id="패스_3617" data-name="패스 3617" d="M25.241,25.241H1.1V1.1H25.241ZM26.338,0H0V26.338H26.338Z" transform="translate(0.549 0.549)" fill="none"/>
          </g>
        </g>
      </g>
      <g id="그룹_2151" data-name="그룹 2151" transform="translate(2.195 2.195)" opacity="0.36">
        <g id="그룹_2150" data-name="그룹 2150">
          <g id="그룹_2149" data-name="그룹 2149" clip-path="url(#clip-path-2)">
            <rect id="사각형_521" data-name="사각형 521" width="20.851" height="20.851" transform="translate(1.097 1.097)" fill="none"/>
            <rect id="사각형_522" data-name="사각형 522" width="20.851" height="20.851" transform="translate(1.097 1.097)" fill="none"/>
          </g>
        </g>
      </g>
      <path id="패스_3618" data-name="패스 3618" d="M11.928,3.812a1.437,1.437,0,1,1-1.437,1.437,1.436,1.436,0,0,1,1.437-1.437" transform="translate(1.571 0.92)" fill="#b5b5b5" stroke="rgba(0,0,0,0)" stroke-width="1"/>
      <circle id="타원_154" data-name="타원 154" cx="1.437" cy="1.437" r="1.437" transform="translate(12.061 4.732)" fill="rgba(0,0,0,0)" stroke="#b5b5b5" stroke-width="1"/>
      <path id="패스_3619" data-name="패스 3619" d="M11.928,10.8a1.437,1.437,0,1,1-1.437,1.437A1.436,1.436,0,0,1,11.928,10.8" transform="translate(1.571 1.601)" fill="#b5b5b5" stroke="rgba(0,0,0,0)" stroke-width="1"/>
      <circle id="타원_155" data-name="타원 155" cx="1.437" cy="1.437" r="1.437" transform="translate(12.061 12.395)" fill="rgba(0,0,0,0)" stroke="#b5b5b5" stroke-width="1"/>
      <path id="패스_3620" data-name="패스 3620" d="M11.928,17.777a1.437,1.437,0,1,1-1.437,1.437,1.436,1.436,0,0,1,1.437-1.437" transform="translate(1.571 2.281)" fill="#b5b5b5" stroke="rgba(0,0,0,0)" stroke-width="1"/>
      <circle id="타원_156" data-name="타원 156" cx="1.437" cy="1.437" r="1.437" transform="translate(12.061 20.058)" fill="rgba(0,0,0,0)" stroke="#b5b5b5" stroke-width="1"/>
    </g>
  </g>
</svg>
