<svg id="그룹_2274" data-name="그룹 2274" xmlns="http://www.w3.org/2000/svg" width="24" height="24" viewBox="0 0 24 24">
  <g id="그룹_2275" data-name="그룹 2275">
    <path id="패스_3665" data-name="패스 3665" d="M16.775,10.475,12.442,6.142a.632.632,0,0,0-.173-.121L12.213,6a.694.694,0,0,0-.372-.009.6.6,0,0,0-.283.155L7.224,10.475a.627.627,0,0,0,0,.884.64.64,0,0,0,.884,0l3.267-3.267v9.325a.625.625,0,0,0,1.25,0V8.092l3.266,3.267a.64.64,0,0,0,.884,0,.625.625,0,0,0,0-.884" fill="#fff"/>
    <path id="패스_3666" data-name="패스 3666" d="M23,23H1V1H23ZM24,0H0V24H24Z" fill="none"/>
  </g>
</svg>
